<mxfile host="app.diagrams.net" modified="2024-06-01T23:59:54.811Z" agent="Mozilla/5.0 (Windows NT 10.0; Win64; x64) AppleWebKit/537.36 (KHTML, like Gecko) Chrome/125.0.0.0 Safari/537.36" etag="GLil5nR_U5tr_KCHlE9j" version="24.4.3" type="device">
  <diagram name="Page-1" id="Page-1">
    <mxGraphModel dx="1794" dy="1569" grid="1" gridSize="10" guides="1" tooltips="1" connect="1" arrows="1" fold="1" page="1" pageScale="1" pageWidth="1169" pageHeight="1654" background="#ffffff" math="0" shadow="0">
      <root>
        <mxCell id="0" />
        <mxCell id="1" parent="0" />
        <UserObject label="" tags="Фон" id="QlbCRqY5D0lggtRaTzDb-93">
          <mxCell style="vsdxID=52;fillColor=none;gradientColor=none;shape=stencil(nZBLDoAgDERP0z3SIyjew0SURgSD+Lu9kMZoXLhwN9O+tukAlrNpJg1SzDH4QW/URgNYgZTkjA4UkwJUgGXng+6DX1zLfmoymdXo17xh5zmRJ6Q42BWCfc2oJfdAr+Yv+AP9Cb7OJ3H/2JG1HNGz/84klThPVCc=);strokeColor=#000000;strokeWidth=3;points=[];labelBackgroundColor=none;rounded=0;html=1;whiteSpace=wrap;" parent="1" vertex="1">
            <mxGeometry x="1227" y="14" width="1088" height="1620" as="geometry" />
          </mxCell>
        </UserObject>
        <UserObject label="&lt;div style=&quot;font-size: 1px&quot;&gt;&lt;/div&gt;" tags="Фон" id="2">
          <mxCell style="verticalAlign=middle;align=center;overflow=width;vsdxID=2;fillColor=none;gradientColor=none;shape=stencil(nZBLDoAgDERP0z3SIyjew0SURgSD+Lu9kMZoXLhwN9O+tukAlrNpJg1SzDH4QW/URgNYgZTkjA4UkwJUgGXng+6DX1zLfmoymdXo17xh5zmRJ6Q42BWCfc2oJfdAr+Yv+AP9Cb7OJ3H/2JG1HNGz/84klThPVCc=);strokeColor=#000000;strokeWidth=3;spacingTop=-1;spacingBottom=-1;spacingLeft=-1;spacingRight=-1;points=[];labelBackgroundColor=none;rounded=0;html=1;whiteSpace=wrap;fontStyle=0" parent="1" vertex="1">
            <mxGeometry x="1551" y="1414" width="764" height="220" as="geometry" />
          </mxCell>
        </UserObject>
        <UserObject label="" tags="Фон" id="53">
          <mxCell style="vsdxID=3;edgeStyle=none;startArrow=none;endArrow=none;startSize=5;endSize=5;strokeWidth=2;strokeColor=#000000;spacingTop=-1;spacingBottom=-1;spacingLeft=-1;spacingRight=-1;verticalAlign=middle;html=1;labelBackgroundColor=none;rounded=0;fontStyle=0" parent="1" edge="1">
            <mxGeometry relative="1" as="geometry">
              <Array as="points" />
              <mxPoint x="2315" y="1474" as="sourcePoint" />
              <mxPoint x="1831" y="1474" as="targetPoint" />
            </mxGeometry>
          </mxCell>
        </UserObject>
        <mxCell id="54" value="&lt;div style=&quot;font-size: 1px&quot;&gt;&lt;/div&gt;" style="text;vsdxID=3;edgeStyle=none;startArrow=none;endArrow=none;startSize=5;endSize=5;strokeWidth=2;strokeColor=none;spacingTop=-1;spacingBottom=-1;spacingLeft=-1;spacingRight=-1;verticalAlign=middle;html=1;labelBackgroundColor=none;rounded=0;align=center;overflow=width;fillColor=none;gradientColor=none;whiteSpace=wrap;;html=1;;rotation=0;fontStyle=0" parent="53" vertex="1">
          <mxGeometry width="484" height="1" relative="1" as="geometry">
            <mxPoint x="-242" y="-0.5" as="offset" />
          </mxGeometry>
        </mxCell>
        <UserObject label="" tags="Фон" id="55">
          <mxCell style="vsdxID=4;edgeStyle=none;startArrow=none;endArrow=none;startSize=5;endSize=5;strokeWidth=2;strokeColor=#000000;spacingTop=-1;spacingBottom=-1;spacingLeft=-1;spacingRight=-1;verticalAlign=middle;html=1;labelBackgroundColor=none;rounded=0;fontStyle=0" parent="1" edge="1">
            <mxGeometry relative="1" as="geometry">
              <Array as="points" />
              <mxPoint x="1831" y="1414" as="sourcePoint" />
              <mxPoint x="1831" y="1634" as="targetPoint" />
            </mxGeometry>
          </mxCell>
        </UserObject>
        <mxCell id="56" value="&lt;div style=&quot;font-size: 1px&quot;&gt;&lt;/div&gt;" style="text;vsdxID=4;edgeStyle=none;startArrow=none;endArrow=none;startSize=5;endSize=5;strokeWidth=2;strokeColor=none;spacingTop=-1;spacingBottom=-1;spacingLeft=-1;spacingRight=-1;verticalAlign=middle;html=1;labelBackgroundColor=none;rounded=0;align=center;overflow=width;fillColor=none;gradientColor=none;whiteSpace=wrap;;html=1;;rotation=270;fontStyle=0" parent="55" vertex="1">
          <mxGeometry width="220" height="1" relative="1" as="geometry">
            <mxPoint x="-110" y="-0.5" as="offset" />
          </mxGeometry>
        </mxCell>
        <UserObject label="&lt;div style=&quot;font-size: 1px&quot;&gt;&lt;/div&gt;" tags="Фон" id="57">
          <mxCell style="vsdxID=5;edgeStyle=none;startArrow=none;endArrow=none;startSize=5;endSize=5;strokeWidth=2;strokeColor=#000000;spacingTop=-1;spacingBottom=-1;spacingLeft=-1;spacingRight=-1;verticalAlign=middle;html=1;labelBackgroundColor=none;rounded=0;align=center;overflow=width;fontStyle=0" parent="1" edge="1">
            <mxGeometry relative="1" as="geometry">
              <mxPoint as="offset" />
              <Array as="points" />
              <mxPoint x="1831" y="1574" as="sourcePoint" />
              <mxPoint x="2315" y="1574" as="targetPoint" />
            </mxGeometry>
          </mxCell>
        </UserObject>
        <UserObject label="" tags="Фон" id="58">
          <mxCell style="vsdxID=6;edgeStyle=none;startArrow=none;endArrow=none;startSize=5;endSize=5;strokeWidth=2;strokeColor=#000000;spacingTop=-1;spacingBottom=-1;spacingLeft=-1;spacingRight=-1;verticalAlign=middle;html=1;labelBackgroundColor=none;rounded=0;fontStyle=0" parent="1" edge="1">
            <mxGeometry relative="1" as="geometry">
              <Array as="points" />
              <mxPoint x="2111" y="1474" as="sourcePoint" />
              <mxPoint x="2111" y="1634" as="targetPoint" />
            </mxGeometry>
          </mxCell>
        </UserObject>
        <mxCell id="59" value="&lt;div style=&quot;font-size: 1px&quot;&gt;&lt;/div&gt;" style="text;vsdxID=6;edgeStyle=none;startArrow=none;endArrow=none;startSize=5;endSize=5;strokeWidth=2;strokeColor=none;spacingTop=-1;spacingBottom=-1;spacingLeft=-1;spacingRight=-1;verticalAlign=middle;html=1;labelBackgroundColor=none;rounded=0;align=center;overflow=width;fillColor=none;gradientColor=none;whiteSpace=wrap;;html=1;;rotation=270;fontStyle=0" parent="58" vertex="1">
          <mxGeometry width="160" height="1" relative="1" as="geometry">
            <mxPoint x="-80" y="-0.5" as="offset" />
          </mxGeometry>
        </mxCell>
        <UserObject label="&lt;div style=&quot;font-size: 1px&quot;&gt;&lt;/div&gt;" tags="Фон" id="60">
          <mxCell style="vsdxID=7;edgeStyle=none;startArrow=none;endArrow=none;startSize=5;endSize=5;strokeWidth=2;strokeColor=#000000;spacingTop=-1;spacingBottom=-1;spacingLeft=-1;spacingRight=-1;verticalAlign=middle;html=1;labelBackgroundColor=none;rounded=0;align=center;overflow=width;fontStyle=0" parent="1" edge="1">
            <mxGeometry relative="1" as="geometry">
              <mxPoint as="offset" />
              <Array as="points" />
              <mxPoint x="2111" y="1494" as="sourcePoint" />
              <mxPoint x="2311" y="1494" as="targetPoint" />
            </mxGeometry>
          </mxCell>
        </UserObject>
        <UserObject label="&lt;div style=&quot;font-size: 1px&quot;&gt;&lt;/div&gt;" tags="Фон" id="61">
          <mxCell style="vsdxID=8;edgeStyle=none;startArrow=none;endArrow=none;startSize=5;endSize=5;strokeWidth=2;strokeColor=#000000;spacingTop=-1;spacingBottom=-1;spacingLeft=-1;spacingRight=-1;verticalAlign=middle;html=1;labelBackgroundColor=none;rounded=0;align=center;overflow=width;fontStyle=0" parent="1" edge="1">
            <mxGeometry relative="1" as="geometry">
              <mxPoint as="offset" />
              <Array as="points" />
              <mxPoint x="2111" y="1554" as="sourcePoint" />
              <mxPoint x="2311" y="1554" as="targetPoint" />
            </mxGeometry>
          </mxCell>
        </UserObject>
        <UserObject label="" tags="Фон" id="62">
          <mxCell style="vsdxID=9;edgeStyle=none;startArrow=none;endArrow=none;startSize=5;endSize=5;strokeColor=#000000;spacingTop=-1;spacingBottom=-1;spacingLeft=-1;spacingRight=-1;verticalAlign=middle;html=1;labelBackgroundColor=none;rounded=0;fontStyle=0" parent="1" edge="1">
            <mxGeometry relative="1" as="geometry">
              <Array as="points" />
              <mxPoint x="2131" y="1494" as="sourcePoint" />
              <mxPoint x="2131" y="1554" as="targetPoint" />
            </mxGeometry>
          </mxCell>
        </UserObject>
        <mxCell id="63" value="&lt;div style=&quot;font-size: 1px&quot;&gt;&lt;/div&gt;" style="text;vsdxID=9;edgeStyle=none;startArrow=none;endArrow=none;startSize=5;endSize=5;strokeColor=none;spacingTop=-1;spacingBottom=-1;spacingLeft=-1;spacingRight=-1;verticalAlign=middle;html=1;labelBackgroundColor=none;rounded=0;align=center;overflow=width;fillColor=none;gradientColor=none;whiteSpace=wrap;;html=1;;rotation=270;fontStyle=0" parent="62" vertex="1">
          <mxGeometry width="60" height="1" relative="1" as="geometry">
            <mxPoint x="-30" y="-0.5" as="offset" />
          </mxGeometry>
        </mxCell>
        <UserObject label="" tags="Фон" id="64">
          <mxCell style="vsdxID=10;edgeStyle=none;startArrow=none;endArrow=none;startSize=5;endSize=5;strokeColor=#000000;spacingTop=-1;spacingBottom=-1;spacingLeft=-1;spacingRight=-1;verticalAlign=middle;html=1;labelBackgroundColor=none;rounded=0;fontStyle=0" parent="1" edge="1">
            <mxGeometry relative="1" as="geometry">
              <Array as="points" />
              <mxPoint x="2151" y="1494" as="sourcePoint" />
              <mxPoint x="2151" y="1554" as="targetPoint" />
            </mxGeometry>
          </mxCell>
        </UserObject>
        <mxCell id="65" value="&lt;div style=&quot;font-size: 1px&quot;&gt;&lt;/div&gt;" style="text;vsdxID=10;edgeStyle=none;startArrow=none;endArrow=none;startSize=5;endSize=5;strokeColor=none;spacingTop=-1;spacingBottom=-1;spacingLeft=-1;spacingRight=-1;verticalAlign=middle;html=1;labelBackgroundColor=none;rounded=0;align=center;overflow=width;fillColor=none;gradientColor=none;whiteSpace=wrap;;html=1;;rotation=270;fontStyle=0" parent="64" vertex="1">
          <mxGeometry width="60" height="1" relative="1" as="geometry">
            <mxPoint x="-30" y="-0.5" as="offset" />
          </mxGeometry>
        </mxCell>
        <UserObject label="" tags="Фон" id="66">
          <mxCell style="vsdxID=11;edgeStyle=none;startArrow=none;endArrow=none;startSize=5;endSize=5;strokeWidth=2;strokeColor=#000000;spacingTop=-1;spacingBottom=-1;spacingLeft=-1;spacingRight=-1;verticalAlign=middle;html=1;labelBackgroundColor=none;rounded=0;fontStyle=0" parent="1" edge="1">
            <mxGeometry relative="1" as="geometry">
              <Array as="points" />
              <mxPoint x="2171" y="1474" as="sourcePoint" />
              <mxPoint x="2171" y="1554" as="targetPoint" />
            </mxGeometry>
          </mxCell>
        </UserObject>
        <mxCell id="67" value="&lt;div style=&quot;font-size: 1px&quot;&gt;&lt;/div&gt;" style="text;vsdxID=11;edgeStyle=none;startArrow=none;endArrow=none;startSize=5;endSize=5;strokeWidth=2;strokeColor=none;spacingTop=-1;spacingBottom=-1;spacingLeft=-1;spacingRight=-1;verticalAlign=middle;html=1;labelBackgroundColor=none;rounded=0;align=center;overflow=width;fillColor=none;gradientColor=none;whiteSpace=wrap;;html=1;;rotation=270;fontStyle=0" parent="66" vertex="1">
          <mxGeometry width="80" height="1" relative="1" as="geometry">
            <mxPoint x="-40" y="-0.5" as="offset" />
          </mxGeometry>
        </mxCell>
        <UserObject label="" tags="Фон" id="68">
          <mxCell style="vsdxID=12;edgeStyle=none;startArrow=none;endArrow=none;startSize=5;endSize=5;strokeWidth=2;strokeColor=#000000;spacingTop=-1;spacingBottom=-1;spacingLeft=-1;spacingRight=-1;verticalAlign=middle;html=1;labelBackgroundColor=none;rounded=0;fontStyle=0" parent="1" edge="1">
            <mxGeometry relative="1" as="geometry">
              <Array as="points" />
              <mxPoint x="2231" y="1474" as="sourcePoint" />
              <mxPoint x="2231" y="1554" as="targetPoint" />
            </mxGeometry>
          </mxCell>
        </UserObject>
        <mxCell id="69" value="&lt;div style=&quot;font-size: 1px&quot;&gt;&lt;/div&gt;" style="text;vsdxID=12;edgeStyle=none;startArrow=none;endArrow=none;startSize=5;endSize=5;strokeWidth=2;strokeColor=none;spacingTop=-1;spacingBottom=-1;spacingLeft=-1;spacingRight=-1;verticalAlign=middle;html=1;labelBackgroundColor=none;rounded=0;align=center;overflow=width;fillColor=none;gradientColor=none;whiteSpace=wrap;;html=1;;rotation=270;fontStyle=0" parent="68" vertex="1">
          <mxGeometry width="80" height="1" relative="1" as="geometry">
            <mxPoint x="-40" y="-0.5" as="offset" />
          </mxGeometry>
        </mxCell>
        <UserObject label="" tags="Фон" id="70">
          <mxCell style="vsdxID=13;edgeStyle=none;startArrow=none;endArrow=none;startSize=5;endSize=5;strokeColor=#000000;spacingTop=-1;spacingBottom=-1;spacingLeft=-1;spacingRight=-1;verticalAlign=middle;html=1;labelBackgroundColor=none;rounded=0;fontStyle=0" parent="1" edge="1">
            <mxGeometry relative="1" as="geometry">
              <Array as="points" />
              <mxPoint x="2191" y="1554" as="sourcePoint" />
              <mxPoint x="2191" y="1574" as="targetPoint" />
            </mxGeometry>
          </mxCell>
        </UserObject>
        <mxCell id="71" value="&lt;div style=&quot;font-size: 1px&quot;&gt;&lt;/div&gt;" style="text;vsdxID=13;edgeStyle=none;startArrow=none;endArrow=none;startSize=5;endSize=5;strokeColor=none;spacingTop=-1;spacingBottom=-1;spacingLeft=-1;spacingRight=-1;verticalAlign=middle;html=1;labelBackgroundColor=none;rounded=0;align=center;overflow=width;fillColor=none;gradientColor=none;whiteSpace=wrap;;html=1;;rotation=270;fontStyle=0" parent="70" vertex="1">
          <mxGeometry width="20" height="1" relative="1" as="geometry">
            <mxPoint x="-10" y="-0.5" as="offset" />
          </mxGeometry>
        </mxCell>
        <UserObject label="" tags="Фон" id="72">
          <mxCell style="vsdxID=14;edgeStyle=none;startArrow=none;endArrow=none;startSize=5;endSize=5;strokeColor=#000000;spacingTop=-1;spacingBottom=-1;spacingLeft=-1;spacingRight=-1;verticalAlign=middle;html=1;labelBackgroundColor=none;rounded=0;fontStyle=0" parent="1" edge="1">
            <mxGeometry relative="1" as="geometry">
              <Array as="points" />
              <mxPoint x="1791" y="1414" as="sourcePoint" />
              <mxPoint x="1791" y="1634" as="targetPoint" />
            </mxGeometry>
          </mxCell>
        </UserObject>
        <mxCell id="73" value="&lt;div style=&quot;font-size: 1px&quot;&gt;&lt;/div&gt;" style="text;vsdxID=14;edgeStyle=none;startArrow=none;endArrow=none;startSize=5;endSize=5;strokeColor=none;spacingTop=-1;spacingBottom=-1;spacingLeft=-1;spacingRight=-1;verticalAlign=middle;html=1;labelBackgroundColor=none;rounded=0;align=center;overflow=width;fillColor=none;gradientColor=none;whiteSpace=wrap;;html=1;;rotation=270;fontStyle=0" parent="72" vertex="1">
          <mxGeometry width="220" height="1" relative="1" as="geometry">
            <mxPoint x="-110" y="-0.5" as="offset" />
          </mxGeometry>
        </mxCell>
        <UserObject label="" tags="Фон" id="74">
          <mxCell style="vsdxID=15;edgeStyle=none;startArrow=none;endArrow=none;startSize=5;endSize=5;strokeColor=#000000;spacingTop=-1;spacingBottom=-1;spacingLeft=-1;spacingRight=-1;verticalAlign=middle;html=1;labelBackgroundColor=none;rounded=0;fontStyle=0" parent="1" edge="1">
            <mxGeometry relative="1" as="geometry">
              <Array as="points" />
              <mxPoint x="1731" y="1414" as="sourcePoint" />
              <mxPoint x="1731" y="1634" as="targetPoint" />
            </mxGeometry>
          </mxCell>
        </UserObject>
        <mxCell id="75" value="&lt;div style=&quot;font-size: 1px&quot;&gt;&lt;/div&gt;" style="text;vsdxID=15;edgeStyle=none;startArrow=none;endArrow=none;startSize=5;endSize=5;strokeColor=none;spacingTop=-1;spacingBottom=-1;spacingLeft=-1;spacingRight=-1;verticalAlign=middle;html=1;labelBackgroundColor=none;rounded=0;align=center;overflow=width;fillColor=none;gradientColor=none;whiteSpace=wrap;;html=1;;rotation=270;fontStyle=0" parent="74" vertex="1">
          <mxGeometry width="220" height="1" relative="1" as="geometry">
            <mxPoint x="-110" y="-0.5" as="offset" />
          </mxGeometry>
        </mxCell>
        <UserObject label="" tags="Фон" id="76">
          <mxCell style="vsdxID=16;edgeStyle=none;startArrow=none;endArrow=none;startSize=5;endSize=5;strokeColor=#000000;spacingTop=-1;spacingBottom=-1;spacingLeft=-1;spacingRight=-1;verticalAlign=middle;html=1;labelBackgroundColor=none;rounded=0;fontStyle=0" parent="1" edge="1">
            <mxGeometry relative="1" as="geometry">
              <Array as="points" />
              <mxPoint x="1639" y="1414" as="sourcePoint" />
              <mxPoint x="1639" y="1634" as="targetPoint" />
            </mxGeometry>
          </mxCell>
        </UserObject>
        <mxCell id="77" value="&lt;div style=&quot;font-size: 1px&quot;&gt;&lt;/div&gt;" style="text;vsdxID=16;edgeStyle=none;startArrow=none;endArrow=none;startSize=5;endSize=5;strokeColor=none;spacingTop=-1;spacingBottom=-1;spacingLeft=-1;spacingRight=-1;verticalAlign=middle;html=1;labelBackgroundColor=none;rounded=0;align=center;overflow=width;fillColor=none;gradientColor=none;whiteSpace=wrap;;html=1;;rotation=270;fontStyle=0" parent="76" vertex="1">
          <mxGeometry width="220" height="1" relative="1" as="geometry">
            <mxPoint x="-110" y="-0.5" as="offset" />
          </mxGeometry>
        </mxCell>
        <UserObject label="" tags="Фон" id="78">
          <mxCell style="vsdxID=17;edgeStyle=none;startArrow=none;endArrow=none;startSize=5;endSize=5;strokeColor=#000000;spacingTop=-1;spacingBottom=-1;spacingLeft=-1;spacingRight=-1;verticalAlign=middle;html=1;labelBackgroundColor=none;rounded=0;fontStyle=0" parent="1" edge="1">
            <mxGeometry relative="1" as="geometry">
              <Array as="points" />
              <mxPoint x="1583" y="1414" as="sourcePoint" />
              <mxPoint x="1583" y="1514" as="targetPoint" />
            </mxGeometry>
          </mxCell>
        </UserObject>
        <mxCell id="79" value="&lt;div style=&quot;font-size: 1px&quot;&gt;&lt;/div&gt;" style="text;vsdxID=17;edgeStyle=none;startArrow=none;endArrow=none;startSize=5;endSize=5;strokeColor=none;spacingTop=-1;spacingBottom=-1;spacingLeft=-1;spacingRight=-1;verticalAlign=middle;html=1;labelBackgroundColor=none;rounded=0;align=center;overflow=width;fillColor=none;gradientColor=none;whiteSpace=wrap;;html=1;;rotation=270;fontStyle=0" parent="78" vertex="1">
          <mxGeometry width="100" height="1" relative="1" as="geometry">
            <mxPoint x="-50" y="-0.5" as="offset" />
          </mxGeometry>
        </mxCell>
        <UserObject label="&lt;div style=&quot;font-size: 1px&quot;&gt;&lt;/div&gt;" tags="Фон" id="80">
          <mxCell style="vsdxID=18;edgeStyle=none;startArrow=none;endArrow=none;startSize=5;endSize=5;strokeColor=#000000;spacingTop=-1;spacingBottom=-1;spacingLeft=-1;spacingRight=-1;verticalAlign=middle;html=1;labelBackgroundColor=none;rounded=0;align=center;overflow=width;fontStyle=0" parent="1" edge="1">
            <mxGeometry relative="1" as="geometry">
              <mxPoint as="offset" />
              <Array as="points" />
              <mxPoint x="1551" y="1434" as="sourcePoint" />
              <mxPoint x="1831" y="1434" as="targetPoint" />
            </mxGeometry>
          </mxCell>
        </UserObject>
        <UserObject label="&lt;div style=&quot;font-size: 1px&quot;&gt;&lt;/div&gt;" tags="Фон" id="81">
          <mxCell style="vsdxID=19;edgeStyle=none;startArrow=none;endArrow=none;startSize=5;endSize=5;strokeColor=#000000;spacingTop=-1;spacingBottom=-1;spacingLeft=-1;spacingRight=-1;verticalAlign=middle;html=1;labelBackgroundColor=none;rounded=0;align=center;overflow=width;fontStyle=0" parent="1" edge="1">
            <mxGeometry relative="1" as="geometry">
              <mxPoint as="offset" />
              <Array as="points" />
              <mxPoint x="1551" y="1454" as="sourcePoint" />
              <mxPoint x="1831" y="1454" as="targetPoint" />
            </mxGeometry>
          </mxCell>
        </UserObject>
        <UserObject label="&lt;div style=&quot;font-size: 1px&quot;&gt;&lt;/div&gt;" tags="Фон" id="82">
          <mxCell style="vsdxID=20;edgeStyle=none;startArrow=none;endArrow=none;startSize=5;endSize=5;strokeColor=#000000;spacingTop=-1;spacingBottom=-1;spacingLeft=-1;spacingRight=-1;verticalAlign=middle;html=1;labelBackgroundColor=none;rounded=0;align=center;overflow=width;fontStyle=0" parent="1" edge="1">
            <mxGeometry relative="1" as="geometry">
              <mxPoint as="offset" />
              <Array as="points" />
              <mxPoint x="1551" y="1474" as="sourcePoint" />
              <mxPoint x="1831" y="1474" as="targetPoint" />
            </mxGeometry>
          </mxCell>
        </UserObject>
        <UserObject label="&lt;div style=&quot;font-size: 1px&quot;&gt;&lt;/div&gt;" tags="Фон" id="83">
          <mxCell style="vsdxID=21;edgeStyle=none;startArrow=none;endArrow=none;startSize=5;endSize=5;strokeColor=#000000;spacingTop=-1;spacingBottom=-1;spacingLeft=-1;spacingRight=-1;verticalAlign=middle;html=1;labelBackgroundColor=none;rounded=0;align=center;overflow=width;fontStyle=0" parent="1" edge="1">
            <mxGeometry relative="1" as="geometry">
              <mxPoint as="offset" />
              <Array as="points" />
              <mxPoint x="1551" y="1494" as="sourcePoint" />
              <mxPoint x="1831" y="1494" as="targetPoint" />
            </mxGeometry>
          </mxCell>
        </UserObject>
        <UserObject label="" tags="Фон" id="84">
          <mxCell style="vsdxID=22;edgeStyle=none;startArrow=none;endArrow=none;startSize=5;endSize=5;strokeWidth=2;strokeColor=#000000;spacingTop=-1;spacingBottom=-1;spacingLeft=-1;spacingRight=-1;verticalAlign=middle;html=1;labelBackgroundColor=none;rounded=0;fontStyle=0" parent="1" edge="1">
            <mxGeometry relative="1" as="geometry">
              <Array as="points" />
              <mxPoint x="1831" y="1514" as="sourcePoint" />
              <mxPoint x="1551" y="1514" as="targetPoint" />
            </mxGeometry>
          </mxCell>
        </UserObject>
        <mxCell id="85" value="&lt;div style=&quot;font-size: 1px&quot;&gt;&lt;/div&gt;" style="text;vsdxID=22;edgeStyle=none;startArrow=none;endArrow=none;startSize=5;endSize=5;strokeWidth=2;strokeColor=none;spacingTop=-1;spacingBottom=-1;spacingLeft=-1;spacingRight=-1;verticalAlign=middle;html=1;labelBackgroundColor=none;rounded=0;align=center;overflow=width;fillColor=none;gradientColor=none;whiteSpace=wrap;;html=1;;rotation=0;fontStyle=0" parent="84" vertex="1">
          <mxGeometry width="280" height="1" relative="1" as="geometry">
            <mxPoint x="-140" y="-0.5" as="offset" />
          </mxGeometry>
        </mxCell>
        <UserObject label="" tags="Фон" id="87">
          <mxCell style="vsdxID=24;edgeStyle=none;startArrow=none;endArrow=none;startSize=5;endSize=5;strokeColor=#000000;spacingTop=-1;spacingBottom=-1;spacingLeft=-1;spacingRight=-1;verticalAlign=middle;html=1;labelBackgroundColor=none;rounded=0;fontStyle=0" parent="1" edge="1">
            <mxGeometry relative="1" as="geometry">
              <Array as="points" />
              <mxPoint x="1831" y="1554" as="sourcePoint" />
              <mxPoint x="1551" y="1554" as="targetPoint" />
            </mxGeometry>
          </mxCell>
        </UserObject>
        <mxCell id="88" value="&lt;div style=&quot;font-size: 1px&quot;&gt;&lt;/div&gt;" style="text;vsdxID=24;edgeStyle=none;startArrow=none;endArrow=none;startSize=5;endSize=5;strokeColor=none;spacingTop=-1;spacingBottom=-1;spacingLeft=-1;spacingRight=-1;verticalAlign=middle;html=1;labelBackgroundColor=none;rounded=0;align=center;overflow=width;fillColor=none;gradientColor=none;whiteSpace=wrap;;html=1;;rotation=0;fontStyle=0" parent="87" vertex="1">
          <mxGeometry width="280" height="1" relative="1" as="geometry">
            <mxPoint x="-140" y="-0.5" as="offset" />
          </mxGeometry>
        </mxCell>
        <UserObject label="&lt;div style=&quot;font-size: 1px&quot;&gt;&lt;/div&gt;" tags="Фон" id="89">
          <mxCell style="vsdxID=25;edgeStyle=none;startArrow=none;endArrow=none;startSize=5;endSize=5;strokeColor=#000000;spacingTop=-1;spacingBottom=-1;spacingLeft=-1;spacingRight=-1;verticalAlign=middle;html=1;labelBackgroundColor=none;rounded=0;align=center;overflow=width;fontStyle=0" parent="1" edge="1">
            <mxGeometry relative="1" as="geometry">
              <mxPoint as="offset" />
              <Array as="points" />
              <mxPoint x="1551" y="1574" as="sourcePoint" />
              <mxPoint x="1831" y="1574" as="targetPoint" />
            </mxGeometry>
          </mxCell>
        </UserObject>
        <UserObject label="" tags="Фон" id="90">
          <mxCell style="vsdxID=26;edgeStyle=none;startArrow=none;endArrow=none;startSize=5;endSize=5;strokeColor=#000000;spacingTop=-1;spacingBottom=-1;spacingLeft=-1;spacingRight=-1;verticalAlign=middle;html=1;labelBackgroundColor=none;rounded=0;fontStyle=0" parent="1" edge="1">
            <mxGeometry relative="1" as="geometry">
              <Array as="points" />
              <mxPoint x="1831" y="1594" as="sourcePoint" />
              <mxPoint x="1551" y="1594" as="targetPoint" />
            </mxGeometry>
          </mxCell>
        </UserObject>
        <mxCell id="91" value="&lt;div style=&quot;font-size: 1px&quot;&gt;&lt;/div&gt;" style="text;vsdxID=26;edgeStyle=none;startArrow=none;endArrow=none;startSize=5;endSize=5;strokeColor=none;spacingTop=-1;spacingBottom=-1;spacingLeft=-1;spacingRight=-1;verticalAlign=middle;html=1;labelBackgroundColor=none;rounded=0;align=center;overflow=width;fillColor=none;gradientColor=none;whiteSpace=wrap;;html=1;;rotation=0;fontStyle=0" parent="90" vertex="1">
          <mxGeometry width="280" height="1" relative="1" as="geometry">
            <mxPoint x="-140" y="-0.5" as="offset" />
          </mxGeometry>
        </mxCell>
        <UserObject label="&lt;div style=&quot;&quot;&gt;&lt;font style=&quot;font-family: Arial; direction: ltr; letter-spacing: 0px; line-height: 120%; opacity: 1;&quot;&gt;&lt;span style=&quot;line-height: 150%; font-family: &amp;quot;Times New Roman&amp;quot;, serif; font-size: 13px;&quot;&gt;&lt;font style=&quot;font-size: 13px;&quot;&gt;Ігровий застосунок моделювання поведінки&lt;br&gt;інтелектуальних агентів у 3D RPG з використанням ігрового рушія Unity&lt;/font&gt;&lt;/span&gt;&lt;span style=&quot;color: rgb(255, 0, 0); font-size: 14.11px;&quot;&gt;&lt;br&gt;&lt;/span&gt;&lt;/font&gt;&lt;/div&gt;" tags="Фон" id="3">
          <mxCell style="verticalAlign=middle;align=center;overflow=width;vsdxID=28;fillColor=none;gradientColor=none;shape=stencil(nZBLDoAgDERP0z3SIyjew0SURgSD+Lu9kMZoXLhwN9O+tukAlrNpJg1SzDH4QW/URgNYgZTkjA4UkwJUgGXng+6DX1zLfmoymdXo17xh5zmRJ6Q42BWCfc2oJfdAr+Yv+AP9Cb7OJ3H/2JG1HNGz/84klThPVCc=);strokeColor=none;spacingTop=-1;spacingBottom=-1;spacingLeft=-1;spacingRight=-1;points=[];labelBackgroundColor=none;rounded=0;html=1;whiteSpace=wrap;fontStyle=0" parent="1" vertex="1">
            <mxGeometry x="1831" y="1574" width="280" height="57" as="geometry" />
          </mxCell>
        </UserObject>
        <UserObject label="&lt;div style=&quot;font-size: 1px&quot;&gt;&lt;p style=&quot;text-align:center;margin-left:0;margin-right:0;margin-top:0px;margin-bottom:0px;text-indent:0;vertical-align:middle;direction:ltr;&quot;&gt;&lt;font style=&quot;font-size: 16.93px; font-family: Arial; direction: ltr; letter-spacing: 0px; line-height: 120%; opacity: 1;&quot;&gt;КПІ.ІТ-0223.045440.06.99&lt;/font&gt;&lt;font style=&quot;font-size: 16.93px; font-family: Arial; direction: ltr; letter-spacing: 0px; line-height: 120%; opacity: 1;&quot;&gt;&lt;span&gt;.&lt;/span&gt;&lt;/font&gt;&lt;font style=&quot;font-size: 16.93px; font-family: Arial; direction: ltr; letter-spacing: 0px; line-height: 120%; opacity: 1;&quot;&gt;СCK&lt;/font&gt;&lt;font style=&quot;font-size:16.93px;font-family:Arial;color:#ff0000;direction:ltr;letter-spacing:0px;line-height:120%;opacity:1&quot;&gt;&lt;span&gt;&lt;br&gt;&lt;/span&gt;&lt;/font&gt;&lt;/p&gt;&lt;/div&gt;" tags="Фон" id="4">
          <mxCell style="verticalAlign=middle;align=center;overflow=width;vsdxID=29;fillColor=none;gradientColor=none;shape=stencil(nZBLDoAgDERP0z3SIyjew0SURgSD+Lu9kMZoXLhwN9O+tukAlrNpJg1SzDH4QW/URgNYgZTkjA4UkwJUgGXng+6DX1zLfmoymdXo17xh5zmRJ6Q42BWCfc2oJfdAr+Yv+AP9Cb7OJ3H/2JG1HNGz/84klThPVCc=);strokeColor=none;spacingTop=-1;spacingBottom=-1;spacingLeft=-1;spacingRight=-1;points=[];labelBackgroundColor=none;rounded=0;html=1;whiteSpace=wrap;fontStyle=0" parent="1" vertex="1">
            <mxGeometry x="1831" y="1414" width="484" height="60" as="geometry" />
          </mxCell>
        </UserObject>
        <UserObject label="&lt;div style=&quot;&quot;&gt;&lt;font style=&quot;direction: ltr; line-height: 120%; opacity: 1;&quot;&gt;&lt;font face=&quot;Arial&quot;&gt;&lt;span style=&quot;font-size: 14.11px;&quot;&gt;Діаграма класів&lt;/span&gt;&lt;/font&gt;&lt;br&gt;&lt;/font&gt;&lt;/div&gt;" tags="Фон" id="5">
          <mxCell style="verticalAlign=middle;align=center;overflow=width;vsdxID=30;fillColor=none;gradientColor=none;shape=stencil(nZBLDoAgDERP0z3SIyjew0SURgSD+Lu9kMZoXLhwN9O+tukAlrNpJg1SzDH4QW/URgNYgZTkjA4UkwJUgGXng+6DX1zLfmoymdXo17xh5zmRJ6Q42BWCfc2oJfdAr+Yv+AP9Cb7OJ3H/2JG1HNGz/84klThPVCc=);strokeColor=none;spacingTop=-1;spacingBottom=-1;spacingLeft=-1;spacingRight=-1;points=[];labelBackgroundColor=none;rounded=0;html=1;whiteSpace=wrap;fontStyle=0" parent="1" vertex="1">
            <mxGeometry x="1831" y="1476" width="280" height="98" as="geometry" />
          </mxCell>
        </UserObject>
        <UserObject label="&lt;div style=&quot;font-size: 1px&quot;&gt;&lt;font style=&quot;font-size:11.29px;font-family:Arial;color:#000000;direction:ltr;letter-spacing:0px;line-height:120%;opacity:1&quot;&gt;&lt;span&gt;Лит.&lt;br&gt;&lt;/span&gt;&lt;/font&gt;&lt;/div&gt;" tags="Фон" id="6">
          <mxCell style="verticalAlign=middle;align=center;overflow=width;vsdxID=31;fillColor=none;gradientColor=none;shape=stencil(nZBLDoAgDERP0z3SIyjew0SURgSD+Lu9kMZoXLhwN9O+tukAlrNpJg1SzDH4QW/URgNYgZTkjA4UkwJUgGXng+6DX1zLfmoymdXo17xh5zmRJ6Q42BWCfc2oJfdAr+Yv+AP9Cb7OJ3H/2JG1HNGz/84klThPVCc=);strokeColor=none;spacingTop=-1;spacingBottom=-1;spacingLeft=-1;spacingRight=-1;points=[];labelBackgroundColor=none;rounded=0;html=1;whiteSpace=wrap;fontStyle=0" parent="1" vertex="1">
            <mxGeometry x="2111" y="1474" width="60" height="21" as="geometry" />
          </mxCell>
        </UserObject>
        <UserObject label="&lt;div style=&quot;font-size: 1px&quot;&gt;&lt;font style=&quot;font-size:11.29px;font-family:Arial;color:#000000;direction:ltr;letter-spacing:0px;line-height:120%;opacity:1&quot;&gt;&lt;span&gt;Маса&lt;br&gt;&lt;/span&gt;&lt;/font&gt;&lt;/div&gt;" tags="Фон" id="7">
          <mxCell style="verticalAlign=middle;align=center;overflow=width;vsdxID=32;fillColor=none;gradientColor=none;shape=stencil(nZBLDoAgDERP0z3SIyjew0SURgSD+Lu9kMZoXLhwN9O+tukAlrNpJg1SzDH4QW/URgNYgZTkjA4UkwJUgGXng+6DX1zLfmoymdXo17xh5zmRJ6Q42BWCfc2oJfdAr+Yv+AP9Cb7OJ3H/2JG1HNGz/84klThPVCc=);strokeColor=none;spacingTop=-1;spacingBottom=-1;spacingLeft=-1;spacingRight=-1;points=[];labelBackgroundColor=none;rounded=0;html=1;whiteSpace=wrap;fontStyle=0" parent="1" vertex="1">
            <mxGeometry x="2171" y="1474" width="60" height="20" as="geometry" />
          </mxCell>
        </UserObject>
        <UserObject label="&lt;div style=&quot;font-size: 1px&quot;&gt;&lt;font style=&quot;font-size:11.29px;font-family:Arial;color:#000000;direction:ltr;letter-spacing:0px;line-height:120%;opacity:1&quot;&gt;&lt;span&gt;Масштаб&lt;br&gt;&lt;/span&gt;&lt;/font&gt;&lt;/div&gt;" tags="Фон" id="8">
          <mxCell style="verticalAlign=middle;align=center;overflow=width;vsdxID=33;fillColor=none;gradientColor=none;shape=stencil(nZBLDoAgDERP0z3SIyjew0SURgSD+Lu9kMZoXLhwN9O+tukAlrNpJg1SzDH4QW/URgNYgZTkjA4UkwJUgGXng+6DX1zLfmoymdXo17xh5zmRJ6Q42BWCfc2oJfdAr+Yv+AP9Cb7OJ3H/2JG1HNGz/84klThPVCc=);strokeColor=none;spacingTop=-1;spacingBottom=-1;spacingLeft=-1;spacingRight=-1;points=[];labelBackgroundColor=none;rounded=0;html=1;whiteSpace=wrap;fontStyle=0" parent="1" vertex="1">
            <mxGeometry x="2231" y="1474" width="84" height="20" as="geometry" />
          </mxCell>
        </UserObject>
        <UserObject label="&lt;div style=&quot;font-size: 1px&quot;&gt;&lt;font style=&quot;font-size:11.29px;font-family:Arial;color:#000000;direction:ltr;letter-spacing:0px;line-height:120%;opacity:1&quot;&gt;&lt;span&gt;Аркуш&lt;br&gt;&lt;/span&gt;&lt;/font&gt;&lt;/div&gt;" tags="Фон" id="10">
          <mxCell style="verticalAlign=middle;align=center;overflow=width;vsdxID=35;fillColor=none;gradientColor=none;shape=stencil(nZBLDoAgDERP0z3SIyjew0SURgSD+Lu9kMZoXLhwN9O+tukAlrNpJg1SzDH4QW/URgNYgZTkjA4UkwJUgGXng+6DX1zLfmoymdXo17xh5zmRJ6Q42BWCfc2oJfdAr+Yv+AP9Cb7OJ3H/2JG1HNGz/84klThPVCc=);strokeColor=none;spacingTop=-1;spacingBottom=-1;spacingLeft=-1;spacingRight=-1;points=[];labelBackgroundColor=none;rounded=0;html=1;whiteSpace=wrap;fontStyle=0" parent="1" vertex="1">
            <mxGeometry x="2111" y="1554" width="80" height="20" as="geometry" />
          </mxCell>
        </UserObject>
        <UserObject label="&lt;div style=&quot;font-size: 1px&quot;&gt;&lt;font style=&quot;font-size:11.29px;font-family:Arial;color:#000000;direction:ltr;letter-spacing:0px;line-height:120%;opacity:1&quot;&gt;&lt;span&gt;Аркушів&lt;br&gt;&lt;/span&gt;&lt;/font&gt;&lt;/div&gt;" tags="Фон" id="11">
          <mxCell style="verticalAlign=middle;align=center;overflow=width;vsdxID=36;fillColor=none;gradientColor=none;shape=stencil(nZBLDoAgDERP0z3SIyjew0SURgSD+Lu9kMZoXLhwN9O+tukAlrNpJg1SzDH4QW/URgNYgZTkjA4UkwJUgGXng+6DX1zLfmoymdXo17xh5zmRJ6Q42BWCfc2oJfdAr+Yv+AP9Cb7OJ3H/2JG1HNGz/84klThPVCc=);strokeColor=none;spacingTop=-1;spacingBottom=-1;spacingLeft=-1;spacingRight=-1;points=[];labelBackgroundColor=none;rounded=0;html=1;whiteSpace=wrap;fontStyle=0" parent="1" vertex="1">
            <mxGeometry x="2191" y="1554" width="124" height="20" as="geometry" />
          </mxCell>
        </UserObject>
        <UserObject label="&lt;div style=&quot;font-size: 1px&quot;&gt;&lt;p style=&quot;text-align:center;margin-left:0;margin-right:0;margin-top:0px;margin-bottom:0px;text-indent:0;vertical-align:middle;direction:ltr;&quot;&gt;&lt;font style=&quot;font-size: 14.11px; font-family: Arial; direction: ltr; letter-spacing: 0px; line-height: 120%; opacity: 1;&quot;&gt;КПІ ім.Ігоря Сікорського&lt;br&gt;Кафедра ІПІ&lt;br&gt;&lt;/font&gt;&lt;/p&gt;&lt;p style=&quot;text-align:center;margin-left:0;margin-right:0;margin-top:0px;margin-bottom:0px;text-indent:0;vertical-align:middle;direction:ltr;&quot;&gt;&lt;font style=&quot;font-size: 14.11px; font-family: Arial; direction: ltr; letter-spacing: 0px; line-height: 120%; opacity: 1;&quot;&gt;гр. ІТ-&lt;/font&gt;&lt;font style=&quot;font-size: 14.11px; font-family: Arial; direction: ltr; letter-spacing: 0px; line-height: 120%; opacity: 1;&quot;&gt;02&lt;/font&gt;&lt;font style=&quot;font-size:11.29px;font-family:Arial;color:#FF0000;direction:ltr;letter-spacing:0px;line-height:120%;opacity:1&quot;&gt;&lt;span&gt;&lt;br&gt;&lt;/span&gt;&lt;/font&gt;&lt;/p&gt;&lt;/div&gt;" tags="Фон" id="12">
          <mxCell style="verticalAlign=middle;align=center;overflow=width;vsdxID=37;fillColor=none;gradientColor=none;shape=stencil(nZBLDoAgDERP0z3SIyjew0SURgSD+Lu9kMZoXLhwN9O+tukAlrNpJg1SzDH4QW/URgNYgZTkjA4UkwJUgGXng+6DX1zLfmoymdXo17xh5zmRJ6Q42BWCfc2oJfdAr+Yv+AP9Cb7OJ3H/2JG1HNGz/84klThPVCc=);strokeColor=none;spacingTop=-1;spacingBottom=-1;spacingLeft=-1;spacingRight=-1;points=[];labelBackgroundColor=none;rounded=0;html=1;whiteSpace=wrap;fontStyle=0" parent="1" vertex="1">
            <mxGeometry x="2112" y="1574" width="203" height="59" as="geometry" />
          </mxCell>
        </UserObject>
        <UserObject label="&lt;div style=&quot;font-size: 1px&quot;&gt;&lt;font style=&quot;font-size:11.29px;font-family:Arial;color:#000000;direction:ltr;letter-spacing:0px;line-height:120%;opacity:1&quot;&gt;&lt;span&gt;Дата&lt;br&gt;&lt;/span&gt;&lt;/font&gt;&lt;/div&gt;" tags="Фон" id="13">
          <mxCell style="verticalAlign=middle;align=center;overflow=width;vsdxID=38;fillColor=none;gradientColor=none;shape=stencil(nZBLDoAgDERP0z3SIyjew0SURgSD+Lu9kMZoXLhwN9O+tukAlrNpJg1SzDH4QW/URgNYgZTkjA4UkwJUgGXng+6DX1zLfmoymdXo17xh5zmRJ6Q42BWCfc2oJfdAr+Yv+AP9Cb7OJ3H/2JG1HNGz/84klThPVCc=);strokeColor=none;spacingTop=-1;spacingBottom=-1;spacingLeft=-1;spacingRight=-1;points=[];labelBackgroundColor=none;rounded=0;html=1;whiteSpace=wrap;fontStyle=0" parent="1" vertex="1">
            <mxGeometry x="1791" y="1495" width="40" height="19" as="geometry" />
          </mxCell>
        </UserObject>
        <UserObject label="&lt;div style=&quot;font-size: 1px&quot;&gt;&lt;font style=&quot;font-size:11.29px;font-family:Arial;color:#000000;direction:ltr;letter-spacing:0px;line-height:120%;opacity:1&quot;&gt;&lt;span&gt;Підп.&lt;br&gt;&lt;/span&gt;&lt;/font&gt;&lt;/div&gt;" tags="Фон" id="14">
          <mxCell style="verticalAlign=middle;align=center;overflow=width;vsdxID=39;fillColor=none;gradientColor=none;shape=stencil(nZBLDoAgDERP0z3SIyjew0SURgSD+Lu9kMZoXLhwN9O+tukAlrNpJg1SzDH4QW/URgNYgZTkjA4UkwJUgGXng+6DX1zLfmoymdXo17xh5zmRJ6Q42BWCfc2oJfdAr+Yv+AP9Cb7OJ3H/2JG1HNGz/84klThPVCc=);strokeColor=none;spacingTop=-1;spacingBottom=-1;spacingLeft=-1;spacingRight=-1;points=[];labelBackgroundColor=none;rounded=0;html=1;whiteSpace=wrap;fontStyle=0" parent="1" vertex="1">
            <mxGeometry x="1730" y="1494" width="61" height="20" as="geometry" />
          </mxCell>
        </UserObject>
        <UserObject label="&lt;div style=&quot;font-size: 1px&quot;&gt;&lt;font style=&quot;font-size:11.29px;font-family:Arial;color:#000000;direction:ltr;letter-spacing:0px;line-height:120%;opacity:1&quot;&gt;&lt;span&gt;№ докум.&lt;br&gt;&lt;/span&gt;&lt;/font&gt;&lt;/div&gt;" tags="Фон" id="15">
          <mxCell style="verticalAlign=middle;align=center;overflow=width;vsdxID=40;fillColor=none;gradientColor=none;shape=stencil(nZBLDoAgDERP0z3SIyjew0SURgSD+Lu9kMZoXLhwN9O+tukAlrNpJg1SzDH4QW/URgNYgZTkjA4UkwJUgGXng+6DX1zLfmoymdXo17xh5zmRJ6Q42BWCfc2oJfdAr+Yv+AP9Cb7OJ3H/2JG1HNGz/84klThPVCc=);strokeColor=none;spacingTop=-1;spacingBottom=-1;spacingLeft=-1;spacingRight=-1;points=[];labelBackgroundColor=none;rounded=0;html=1;whiteSpace=wrap;fontStyle=0" parent="1" vertex="1">
            <mxGeometry x="1639" y="1494" width="91" height="20" as="geometry" />
          </mxCell>
        </UserObject>
        <UserObject label="&lt;div style=&quot;font-size: 1px&quot;&gt;&lt;font style=&quot;font-size:11.29px;font-family:Arial;color:#000000;direction:ltr;letter-spacing:0px;line-height:120%;opacity:1&quot;&gt;&lt;span&gt;Арк.&lt;br&gt;&lt;/span&gt;&lt;/font&gt;&lt;/div&gt;" tags="Фон" id="16">
          <mxCell style="verticalAlign=middle;align=center;overflow=width;vsdxID=41;fillColor=none;gradientColor=none;shape=stencil(nZBLDoAgDERP0z3SIyjew0SURgSD+Lu9kMZoXLhwN9O+tukAlrNpJg1SzDH4QW/URgNYgZTkjA4UkwJUgGXng+6DX1zLfmoymdXo17xh5zmRJ6Q42BWCfc2oJfdAr+Yv+AP9Cb7OJ3H/2JG1HNGz/84klThPVCc=);strokeColor=none;spacingTop=-1;spacingBottom=-1;spacingLeft=-1;spacingRight=-1;points=[];labelBackgroundColor=none;rounded=0;html=1;whiteSpace=wrap;fontStyle=0" parent="1" vertex="1">
            <mxGeometry x="1583" y="1494" width="56" height="20" as="geometry" />
          </mxCell>
        </UserObject>
        <UserObject label="&lt;div style=&quot;font-size: 1px&quot;&gt;&lt;font style=&quot;font-size:11.29px;font-family:Arial;color:#000000;direction:ltr;letter-spacing:0px;line-height:120%;opacity:1&quot;&gt;&lt;span&gt;Зм.&lt;br&gt;&lt;/span&gt;&lt;/font&gt;&lt;/div&gt;" tags="Фон" id="17">
          <mxCell style="verticalAlign=middle;align=center;overflow=width;vsdxID=42;fillColor=none;gradientColor=none;shape=stencil(nZBLDoAgDERP0z3SIyjew0SURgSD+Lu9kMZoXLhwN9O+tukAlrNpJg1SzDH4QW/URgNYgZTkjA4UkwJUgGXng+6DX1zLfmoymdXo17xh5zmRJ6Q42BWCfc2oJfdAr+Yv+AP9Cb7OJ3H/2JG1HNGz/84klThPVCc=);strokeColor=none;spacingTop=-1;spacingBottom=-1;spacingLeft=-1;spacingRight=-1;points=[];labelBackgroundColor=none;rounded=0;html=1;whiteSpace=wrap;fontStyle=0" parent="1" vertex="1">
            <mxGeometry x="1552" y="1494" width="31" height="20" as="geometry" />
          </mxCell>
        </UserObject>
        <UserObject label="&lt;div style=&quot;font-size: 1px&quot;&gt;&lt;font style=&quot;font-size:11.29px;font-family:Arial;color:#000000;direction:ltr;letter-spacing:0px;line-height:120%;opacity:1&quot;&gt;&lt;span&gt;Затвердив&lt;br&gt;&lt;/span&gt;&lt;/font&gt;&lt;/div&gt;" tags="Фон" id="18">
          <mxCell style="verticalAlign=middle;align=left;overflow=width;vsdxID=43;fillColor=none;gradientColor=none;shape=stencil(nZBLDoAgDERP0z3SIyjew0SURgSD+Lu9kMZoXLhwN9O+tukAlrNpJg1SzDH4QW/URgNYgZTkjA4UkwJUgGXng+6DX1zLfmoymdXo17xh5zmRJ6Q42BWCfc2oJfdAr+Yv+AP9Cb7OJ3H/2JG1HNGz/84klThPVCc=);strokeColor=none;spacingTop=-1;spacingBottom=-1;spacingLeft=-1;spacingRight=-1;points=[];labelBackgroundColor=none;rounded=0;html=1;whiteSpace=wrap;fontStyle=0" parent="1" vertex="1">
            <mxGeometry x="1558" y="1617" width="73" height="17" as="geometry" />
          </mxCell>
        </UserObject>
        <UserObject label="&lt;div style=&quot;font-size: 1px&quot;&gt;&lt;font style=&quot;font-size:11.29px;font-family:Arial;color:#000000;direction:ltr;letter-spacing:0px;line-height:120%;opacity:1&quot;&gt;&lt;span&gt;Н. контр.&lt;br&gt;&lt;/span&gt;&lt;/font&gt;&lt;/div&gt;" tags="Фон" id="19">
          <mxCell style="verticalAlign=middle;align=left;overflow=width;vsdxID=44;fillColor=none;gradientColor=none;shape=stencil(nZBLDoAgDERP0z3SIyjew0SURgSD+Lu9kMZoXLhwN9O+tukAlrNpJg1SzDH4QW/URgNYgZTkjA4UkwJUgGXng+6DX1zLfmoymdXo17xh5zmRJ6Q42BWCfc2oJfdAr+Yv+AP9Cb7OJ3H/2JG1HNGz/84klThPVCc=);strokeColor=none;spacingTop=-1;spacingBottom=-1;spacingLeft=-1;spacingRight=-1;points=[];labelBackgroundColor=none;rounded=0;html=1;whiteSpace=wrap;fontStyle=0" parent="1" vertex="1">
            <mxGeometry x="1558" y="1594" width="73" height="20" as="geometry" />
          </mxCell>
        </UserObject>
        <UserObject label="&lt;div style=&quot;font-size: 1px&quot;&gt;&lt;font style=&quot;font-size:11.29px;font-family:Arial;color:#000000;direction:ltr;letter-spacing:0px;line-height:120%;opacity:1&quot;&gt;&lt;span&gt;Т. контр.&lt;br&gt;&lt;/span&gt;&lt;/font&gt;&lt;/div&gt;" tags="Фон" id="20">
          <mxCell style="verticalAlign=middle;align=left;overflow=width;vsdxID=45;fillColor=none;gradientColor=none;shape=stencil(nZBLDoAgDERP0z3SIyjew0SURgSD+Lu9kMZoXLhwN9O+tukAlrNpJg1SzDH4QW/URgNYgZTkjA4UkwJUgGXng+6DX1zLfmoymdXo17xh5zmRJ6Q42BWCfc2oJfdAr+Yv+AP9Cb7OJ3H/2JG1HNGz/84klThPVCc=);strokeColor=none;spacingTop=-1;spacingBottom=-1;spacingLeft=-1;spacingRight=-1;points=[];labelBackgroundColor=none;rounded=0;html=1;whiteSpace=wrap;fontStyle=0" parent="1" vertex="1">
            <mxGeometry x="1558" y="1554" width="73" height="20" as="geometry" />
          </mxCell>
        </UserObject>
        <UserObject label="&lt;div style=&quot;font-size: 1px&quot;&gt;&lt;font style=&quot;font-size:11.29px;font-family:Arial;color:#000000;direction:ltr;letter-spacing:0px;line-height:120%;opacity:1&quot;&gt;&lt;span&gt;Перевірив&lt;br&gt;&lt;/span&gt;&lt;/font&gt;&lt;/div&gt;" tags="Фон" id="21">
          <mxCell style="verticalAlign=middle;align=left;overflow=width;vsdxID=46;fillColor=none;gradientColor=none;shape=stencil(nZBLDoAgDERP0z3SIyjew0SURgSD+Lu9kMZoXLhwN9O+tukAlrNpJg1SzDH4QW/URgNYgZTkjA4UkwJUgGXng+6DX1zLfmoymdXo17xh5zmRJ6Q42BWCfc2oJfdAr+Yv+AP9Cb7OJ3H/2JG1HNGz/84klThPVCc=);strokeColor=none;spacingTop=-1;spacingBottom=-1;spacingLeft=-1;spacingRight=-1;points=[];labelBackgroundColor=none;rounded=0;html=1;whiteSpace=wrap;fontStyle=0" parent="1" vertex="1">
            <mxGeometry x="1558" y="1534" width="73" height="20" as="geometry" />
          </mxCell>
        </UserObject>
        <UserObject label="&lt;div style=&quot;font-size: 1px&quot;&gt;&lt;p style=&quot;text-align:left;margin-left:0;margin-right:0;margin-top:0px;margin-bottom:0px;text-indent:0;vertical-align:middle;direction:ltr;&quot;&gt;&lt;font style=&quot;font-size: 11.29px; font-family: Arial; direction: ltr; letter-spacing: 0px; line-height: 120%; opacity: 1;&quot;&gt;Ліщук К.І.&lt;br&gt;&lt;/font&gt;&lt;/p&gt;&lt;/div&gt;" tags="Фон" id="23">
          <mxCell style="verticalAlign=middle;align=left;overflow=width;vsdxID=49;fillColor=none;gradientColor=none;shape=stencil(nZBLDoAgDERP0z3SIyjew0SURgSD+Lu9kMZoXLhwN9O+tukAlrNpJg1SzDH4QW/URgNYgZTkjA4UkwJUgGXng+6DX1zLfmoymdXo17xh5zmRJ6Q42BWCfc2oJfdAr+Yv+AP9Cb7OJ3H/2JG1HNGz/84klThPVCc=);strokeColor=none;spacingTop=-1;spacingBottom=-1;spacingLeft=-1;spacingRight=-1;points=[];labelBackgroundColor=none;rounded=0;html=1;whiteSpace=wrap;fontStyle=0" parent="1" vertex="1">
            <mxGeometry x="1642" y="1594" width="88" height="20" as="geometry" />
          </mxCell>
        </UserObject>
        <UserObject label="&lt;div style=&quot;font-size: 1px&quot;&gt;&lt;font style=&quot;font-size:11.29px;font-family:Arial;color:#000000;direction:ltr;letter-spacing:0px;line-height:120%;opacity:1&quot;&gt;&lt;span&gt;Розробив&lt;br&gt;&lt;/span&gt;&lt;/font&gt;&lt;/div&gt;" tags="Фон" id="22">
          <mxCell style="verticalAlign=middle;align=left;overflow=width;vsdxID=47;fillColor=none;gradientColor=none;shape=stencil(nZBLDoAgDERP0z3SIyjew0SURgSD+Lu9kMZoXLhwN9O+tukAlrNpJg1SzDH4QW/URgNYgZTkjA4UkwJUgGXng+6DX1zLfmoymdXo17xh5zmRJ6Q42BWCfc2oJfdAr+Yv+AP9Cb7OJ3H/2JG1HNGz/84klThPVCc=);strokeColor=none;spacingTop=-1;spacingBottom=-1;spacingLeft=-1;spacingRight=-1;points=[];labelBackgroundColor=none;rounded=0;html=1;whiteSpace=wrap;fontStyle=0" parent="1" vertex="1">
            <mxGeometry x="1558" y="1514" width="73" height="20" as="geometry" />
          </mxCell>
        </UserObject>
        <UserObject label="" tags="Фон" id="25">
          <mxCell style="vsdxID=53;fillColor=#FFFFFF;gradientColor=none;shape=stencil(nZBLDoAgDERP0z3SIyjew0SURgSD+Lu9kMZoXLhwN9O+tukAlrNpJg1SzDH4QW/URgNYgZTkjA4UkwJUgGXng+6DX1zLfmoymdXo17xh5zmRJ6Q42BWCfc2oJfdAr+Yv+AP9Cb7OJ3H/2JG1HNGz/84klThPVCc=);strokeColor=#000000;strokeWidth=3;points=[];labelBackgroundColor=none;rounded=0;html=1;whiteSpace=wrap;" parent="1" vertex="1">
            <mxGeometry x="1227" y="14" width="280" height="56" as="geometry" />
          </mxCell>
        </UserObject>
        <UserObject label="&lt;div style=&quot;font-size: 1px&quot;&gt;&lt;p style=&quot;text-align:left;margin-left:0;margin-right:0;margin-top:0px;margin-bottom:0px;text-indent:0;vertical-align:middle;direction:ltr;&quot;&gt;&lt;font style=&quot;font-size: 11.29px; font-family: Arial; direction: ltr; letter-spacing: 0px; line-height: 120%; opacity: 1;&quot;&gt;&lt;span&gt;Жаріков Е.В.&lt;/span&gt;&lt;/font&gt;&lt;font style=&quot;font-size: 11.29px; font-family: Arial; direction: ltr; letter-spacing: 0px; line-height: 120%; opacity: 1;&quot;&gt;&lt;span&gt;&lt;br&gt;&lt;/span&gt;&lt;/font&gt;&lt;/p&gt;&lt;/div&gt;" tags="Фон" id="49">
          <mxCell style="verticalAlign=middle;align=left;overflow=width;vsdxID=115;fillColor=none;gradientColor=none;shape=stencil(nZBLDoAgDERP0z3SIyjew0SURgSD+Lu9kMZoXLhwN9O+tukAlrNpJg1SzDH4QW/URgNYgZTkjA4UkwJUgGXng+6DX1zLfmoymdXo17xh5zmRJ6Q42BWCfc2oJfdAr+Yv+AP9Cb7OJ3H/2JG1HNGz/84klThPVCc=);strokeColor=none;spacingTop=-1;spacingBottom=-1;spacingLeft=-1;spacingRight=-1;points=[];labelBackgroundColor=none;rounded=0;html=1;whiteSpace=wrap;fontStyle=0;fontColor=#000000;" parent="1" vertex="1">
            <mxGeometry x="1642" y="1615" width="88" height="16" as="geometry" />
          </mxCell>
        </UserObject>
        <UserObject label="&lt;div style=&quot;font-size: 1px&quot;&gt;&lt;p style=&quot;text-align:left;margin-left:0;margin-right:0;margin-top:0px;margin-bottom:0px;text-indent:0;vertical-align:middle;direction:ltr;&quot;&gt;&lt;font style=&quot;font-size: 11.29px; font-family: Arial; direction: ltr; letter-spacing: 0px; line-height: 120%; opacity: 1;&quot;&gt;Фіногенов О.Д.&lt;/font&gt;&lt;/p&gt;&lt;/div&gt;" tags="Фон" id="50">
          <mxCell style="verticalAlign=middle;align=left;overflow=width;vsdxID=116;fillColor=none;gradientColor=none;shape=stencil(nZBLDoAgDERP0z3SIyjew0SURgSD+Lu9kMZoXLhwN9O+tukAlrNpJg1SzDH4QW/URgNYgZTkjA4UkwJUgGXng+6DX1zLfmoymdXo17xh5zmRJ6Q42BWCfc2oJfdAr+Yv+AP9Cb7OJ3H/2JG1HNGz/84klThPVCc=);strokeColor=none;spacingTop=-1;spacingBottom=-1;spacingLeft=-1;spacingRight=-1;points=[];labelBackgroundColor=none;rounded=0;html=1;whiteSpace=wrap;fontStyle=0" parent="1" vertex="1">
            <mxGeometry x="1642" y="1534" width="88" height="20" as="geometry" />
          </mxCell>
        </UserObject>
        <UserObject label="&lt;div style=&quot;font-size: 1px&quot;&gt;&lt;p style=&quot;text-align:left;margin-left:0;margin-right:0;margin-top:0px;margin-bottom:0px;text-indent:0;vertical-align:middle;direction:ltr;&quot;&gt;&lt;font style=&quot;font-size: 11.29px; font-family: Arial; direction: ltr; letter-spacing: 0px; line-height: 120%; opacity: 1;&quot;&gt;Терешкович М.О&lt;br&gt;&lt;/font&gt;&lt;/p&gt;&lt;/div&gt;" tags="Фон" id="51">
          <mxCell style="verticalAlign=middle;align=left;overflow=width;vsdxID=117;fillColor=none;gradientColor=none;shape=stencil(nZBLDoAgDERP0z3SIyjew0SURgSD+Lu9kMZoXLhwN9O+tukAlrNpJg1SzDH4QW/URgNYgZTkjA4UkwJUgGXng+6DX1zLfmoymdXo17xh5zmRJ6Q42BWCfc2oJfdAr+Yv+AP9Cb7OJ3H/2JG1HNGz/84klThPVCc=);strokeColor=none;spacingTop=-1;spacingBottom=-1;spacingLeft=-1;spacingRight=-1;points=[];labelBackgroundColor=none;rounded=0;html=1;whiteSpace=wrap;fontStyle=0" parent="1" vertex="1">
            <mxGeometry x="1639" y="1514" width="98" height="20" as="geometry" />
          </mxCell>
        </UserObject>
        <UserObject label="&lt;div style=&quot;font-size: 1px&quot;&gt;&lt;p style=&quot;text-align:center;margin-left:0;margin-right:0;margin-top:0px;margin-bottom:0px;text-indent:0;vertical-align:middle;direction:ltr;&quot;&gt;&lt;font style=&quot;font-size: 16.93px; font-family: Arial; direction: ltr; letter-spacing: 0px; line-height: 120%; opacity: 1;&quot;&gt;&lt;font style=&quot;letter-spacing: 0px; font-size: 16.93px; direction: ltr; line-height: 20.316px; opacity: 1;&quot;&gt;КПІ.ІТ-0223.045440.06.99&lt;/font&gt;&lt;font style=&quot;letter-spacing: 0px; font-size: 16.93px; direction: ltr; line-height: 20.316px; opacity: 1;&quot;&gt;.&lt;/font&gt;&lt;font style=&quot;letter-spacing: 0px; font-size: 16.93px; direction: ltr; line-height: 20.316px; opacity: 1;&quot;&gt;СCK&lt;/font&gt;&lt;span style=&quot;color: rgb(255, 0, 0);&quot;&gt;&lt;br&gt;&lt;/span&gt;&lt;/font&gt;&lt;/p&gt;&lt;/div&gt;" tags="Фон" id="52">
          <mxCell style="verticalAlign=middle;align=center;overflow=width;vsdxID=118;rotation=180;fillColor=none;gradientColor=none;shape=stencil(nZBLDoAgDERP0z3SIyjew0SURgSD+Lu9kMZoXLhwN9O+tukAlrNpJg1SzDH4QW/URgNYgZTkjA4UkwJUgGXng+6DX1zLfmoymdXo17xh5zmRJ6Q42BWCfc2oJfdAr+Yv+AP9Cb7OJ3H/2JG1HNGz/84klThPVCc=);strokeColor=none;spacingTop=-1;spacingBottom=-1;spacingLeft=-1;spacingRight=-1;points=[];labelBackgroundColor=none;rounded=0;html=1;whiteSpace=wrap;fontStyle=0" parent="1" vertex="1">
            <mxGeometry x="1230" y="18" width="277" height="48" as="geometry" />
          </mxCell>
        </UserObject>
        <UserObject label="" tags="Flowchart Connector" id="93">
          <mxCell parent="1" vertex="1" visible="0">
            <mxGeometry as="geometry" />
          </mxCell>
        </UserObject>
        <UserObject label="&lt;div style=&quot;font-size: 1px&quot;&gt;&lt;/div&gt;" tags="Фон" id="86">
          <mxCell style="vsdxID=23;edgeStyle=none;startArrow=none;endArrow=none;startSize=5;endSize=5;strokeColor=#000000;spacingTop=-1;spacingBottom=-1;spacingLeft=-1;spacingRight=-1;verticalAlign=middle;html=1;labelBackgroundColor=none;rounded=0;align=center;overflow=width;fontStyle=0" parent="1" edge="1">
            <mxGeometry relative="1" as="geometry">
              <mxPoint as="offset" />
              <Array as="points" />
              <mxPoint x="1551" y="1534" as="sourcePoint" />
              <mxPoint x="1831" y="1534" as="targetPoint" />
            </mxGeometry>
          </mxCell>
        </UserObject>
        <UserObject label="&lt;div style=&quot;font-size: 1px&quot;&gt;&lt;/div&gt;" tags="Фон" id="92">
          <mxCell style="vsdxID=27;edgeStyle=none;startArrow=none;endArrow=none;startSize=5;endSize=5;strokeColor=#000000;spacingTop=-1;spacingBottom=-1;spacingLeft=-1;spacingRight=-1;verticalAlign=middle;html=1;labelBackgroundColor=none;rounded=0;align=center;overflow=width;fontStyle=0" parent="1" edge="1">
            <mxGeometry relative="1" as="geometry">
              <mxPoint as="offset" />
              <Array as="points" />
              <mxPoint x="1551" y="1614" as="sourcePoint" />
              <mxPoint x="1831" y="1614" as="targetPoint" />
            </mxGeometry>
          </mxCell>
        </UserObject>
      </root>
    </mxGraphModel>
  </diagram>
</mxfile>
